<svg width="19" height="19" viewBox="0 0 19 19" fill="none" xmlns="http://www.w3.org/2000/svg">
<g clip-path="url(#clip0_1_226)">
<path fill-rule="evenodd" clip-rule="evenodd" d="M10.0932 4.15328V4.74644C10.0825 5.2725 9.23162 5.57234 8.96265 4.99759C8.92684 4.91865 8.90783 4.83312 8.90684 4.74644V4.15328H7.12797C6.67137 4.13131 6.36559 3.53459 6.67969 3.17181C6.78775 3.04712 6.87503 2.97944 7.12797 2.96697C7.72053 2.96697 8.31369 2.96519 8.90684 2.96162V2.37441C8.90527 2.31116 8.91534 2.24817 8.93653 2.18856C9.0149 1.95047 9.24944 1.78125 9.51187 1.78125C9.82834 1.79372 10.086 2.03063 10.0932 2.37441V2.9545C11.2789 2.94737 12.4652 2.94084 13.6515 2.94678V2.37441C13.6574 2.05734 13.889 1.79491 14.2328 1.78125H14.2559C14.573 1.79372 14.8307 2.03063 14.8372 2.37441V2.95747L15.4743 2.96756C16.3833 2.99606 17.192 3.77803 17.2092 4.72447C17.2318 8.29706 17.2318 11.8702 17.2092 15.4434C17.1926 16.3608 16.3988 17.1825 15.4523 17.2003C11.4843 17.2247 7.51569 17.2247 3.54765 17.2003C2.63387 17.1831 1.80856 16.4053 1.79075 15.4434C1.76819 11.8702 1.76819 8.29706 1.79075 4.72447C1.80737 3.80059 2.59884 2.9735 3.56784 2.96697H4.16278V2.37441C4.16091 2.31114 4.17098 2.24809 4.19247 2.18856C4.27084 1.95047 4.50537 1.78125 4.76722 1.78125C5.08428 1.79372 5.34197 2.03063 5.3485 2.37441V4.74644C5.3384 5.27191 4.5119 5.56641 4.22869 5.01897C4.18603 4.93441 4.16348 4.84114 4.16278 4.74644V4.15091C3.96011 4.14932 3.75743 4.15011 3.55478 4.15328C3.25375 4.16278 2.98597 4.42641 2.97647 4.73159C2.91026 8.29933 2.91026 11.868 2.97647 15.4357C2.98597 15.7373 3.24959 16.0045 3.55478 16.014C7.51792 16.0877 11.4821 16.0877 15.4452 16.014C15.7462 16.0045 16.014 15.7409 16.0235 15.4357C16.0894 11.8685 16.0894 8.29884 16.0235 4.73159C16.0145 4.5783 15.9485 4.43391 15.8384 4.32688C15.7283 4.21985 15.5821 4.15791 15.4286 4.15328H14.8372V4.74644C14.8271 5.26716 13.9982 5.56106 13.7174 5.01897C13.675 4.93431 13.6525 4.84111 13.6515 4.74644V4.15328H10.0932ZM4.75534 13.642C4.83485 13.6395 4.91406 13.653 4.98826 13.6817C5.06246 13.7104 5.13014 13.7537 5.18727 13.809C5.2444 13.8644 5.28983 13.9307 5.32086 14.0039C5.35188 14.0772 5.36787 14.1559 5.36787 14.2355C5.36787 14.315 5.35188 14.3937 5.32086 14.467C5.28983 14.5403 5.2444 14.6065 5.18727 14.6619C5.13014 14.7172 5.06246 14.7605 4.98826 14.7892C4.91406 14.8179 4.83485 14.8314 4.75534 14.8289C4.6012 14.824 4.455 14.7594 4.34769 14.6486C4.24037 14.5378 4.18037 14.3897 4.18037 14.2355C4.18037 14.0812 4.24037 13.9331 4.34769 13.8223C4.455 13.7115 4.6012 13.6469 4.75534 13.642ZM7.12797 13.642C7.2081 13.6385 7.28811 13.6513 7.36317 13.6795C7.43823 13.7078 7.50678 13.751 7.5647 13.8065C7.62261 13.862 7.66868 13.9286 7.70013 14.0024C7.73157 14.0762 7.74774 14.1556 7.74766 14.2358C7.74758 14.316 7.73125 14.3953 7.69966 14.4691C7.66806 14.5428 7.62186 14.6093 7.56384 14.6647C7.50581 14.7201 7.43717 14.7631 7.36205 14.7913C7.28694 14.8194 7.2069 14.832 7.12678 14.8283C6.97406 14.8213 6.82992 14.7557 6.72438 14.6451C6.61883 14.5345 6.56001 14.3875 6.56016 14.2346C6.56032 14.0817 6.61943 13.9348 6.7252 13.8244C6.83097 13.714 6.97524 13.6487 7.12797 13.642ZM9.5 13.642C9.65272 13.6488 9.79692 13.7143 9.90258 13.8248C10.0082 13.9353 10.0672 14.0823 10.0672 14.2352C10.0672 14.388 10.0082 14.535 9.90258 14.6455C9.79692 14.756 9.65272 14.8215 9.5 14.8283C9.34727 14.8215 9.20307 14.756 9.09742 14.6455C8.99176 14.535 8.9328 14.388 8.9328 14.2352C8.9328 14.0823 8.99176 13.9353 9.09742 13.8248C9.20307 13.7143 9.34727 13.6488 9.5 13.642ZM4.75534 11.27C4.83478 11.2675 4.91391 11.2809 4.98803 11.3096C5.06216 11.3383 5.12977 11.3815 5.18684 11.4368C5.24392 11.4921 5.28931 11.5583 5.3203 11.6315C5.35129 11.7047 5.36726 11.7834 5.36726 11.8628C5.36726 11.9423 5.35129 12.021 5.3203 12.0941C5.28931 12.1673 5.24392 12.2335 5.18684 12.2888C5.12977 12.3441 5.06216 12.3874 4.98803 12.4161C4.91391 12.4447 4.83478 12.4582 4.75534 12.4557C4.60135 12.4508 4.4553 12.3862 4.3481 12.2756C4.2409 12.1649 4.18095 12.0169 4.18095 11.8628C4.18095 11.7088 4.2409 11.5607 4.3481 11.4501C4.4553 11.3394 4.60135 11.2748 4.75534 11.27ZM7.12797 11.27C7.2852 11.27 7.436 11.3324 7.54718 11.4436C7.65836 11.5548 7.72083 11.7056 7.72083 11.8628C7.72083 12.0201 7.65836 12.1709 7.54718 12.282C7.436 12.3932 7.2852 12.4557 7.12797 12.4557C6.97073 12.4557 6.81993 12.3932 6.70875 12.282C6.59757 12.1709 6.53511 12.0201 6.53511 11.8628C6.53511 11.7056 6.59757 11.5548 6.70875 11.4436C6.81993 11.3324 6.97073 11.27 7.12797 11.27ZM9.5 11.27C9.57951 11.2675 9.65872 11.2809 9.73292 11.3096C9.80712 11.3383 9.87479 11.3816 9.93193 11.437C9.98906 11.4923 10.0345 11.5586 10.0655 11.6319C10.0965 11.7051 10.1125 11.7839 10.1125 11.8634C10.1125 11.943 10.0965 12.0217 10.0655 12.095C10.0345 12.1682 9.98906 12.2345 9.93193 12.2899C9.87479 12.3452 9.80712 12.3885 9.73292 12.4172C9.65872 12.4459 9.57951 12.4594 9.5 12.4569C9.34585 12.452 9.19966 12.3873 9.09234 12.2766C8.98503 12.1658 8.92502 12.0176 8.92502 11.8634C8.92502 11.7092 8.98503 11.561 9.09234 11.4503C9.19966 11.3395 9.34585 11.2748 9.5 11.27ZM11.872 11.27C11.9515 11.2675 12.0308 11.2809 12.1049 11.3096C12.1791 11.3383 12.2468 11.3816 12.304 11.437C12.3611 11.4923 12.4065 11.5586 12.4375 11.6319C12.4686 11.7051 12.4846 11.7839 12.4846 11.8634C12.4846 11.943 12.4686 12.0217 12.4375 12.095C12.4065 12.1682 12.3611 12.2345 12.304 12.2899C12.2468 12.3452 12.1791 12.3885 12.1049 12.4172C12.0308 12.4459 11.9515 12.4594 11.872 12.4569C11.7179 12.452 11.5717 12.3873 11.4644 12.2766C11.3571 12.1658 11.2971 12.0176 11.2971 11.8634C11.2971 11.7092 11.3571 11.561 11.4644 11.4503C11.5717 11.3395 11.7179 11.2748 11.872 11.27ZM14.2441 11.27C14.3235 11.2675 14.4026 11.2809 14.4768 11.3096C14.5509 11.3383 14.6185 11.3815 14.6756 11.4368C14.7326 11.4921 14.778 11.5583 14.809 11.6315C14.84 11.7047 14.856 11.7834 14.856 11.8628C14.856 11.9423 14.84 12.021 14.809 12.0941C14.778 12.1673 14.7326 12.2335 14.6756 12.2888C14.6185 12.3441 14.5509 12.3874 14.4768 12.4161C14.4026 12.4447 14.3235 12.4582 14.2441 12.4557C14.0901 12.4508 13.944 12.3862 13.8368 12.2756C13.7296 12.1649 13.6697 12.0169 13.6697 11.8628C13.6697 11.7088 13.7296 11.5607 13.8368 11.4501C13.944 11.3394 14.0901 11.2748 14.2441 11.27ZM7.12797 8.89794C7.20578 8.89794 7.28284 8.91326 7.35473 8.94304C7.42662 8.97282 7.49195 9.01647 7.54697 9.07149C7.602 9.12652 7.64564 9.19184 7.67542 9.26374C7.7052 9.33563 7.72053 9.41268 7.72053 9.4905C7.72053 9.56832 7.7052 9.64537 7.67542 9.71726C7.64564 9.78916 7.602 9.85448 7.54697 9.90951C7.49195 9.96453 7.42662 10.0082 7.35473 10.038C7.28284 10.0677 7.20578 10.0831 7.12797 10.0831C6.97081 10.0831 6.82009 10.0206 6.70896 9.90951C6.59784 9.79838 6.5354 9.64766 6.5354 9.4905C6.5354 9.33334 6.59784 9.18262 6.70896 9.07149C6.82009 8.96037 6.97081 8.89794 7.12797 8.89794ZM9.5 8.89794C9.58013 8.89435 9.66015 8.90704 9.73524 8.93523C9.81033 8.96342 9.87893 9.00653 9.9369 9.06197C9.99487 9.1174 10.041 9.184 10.0725 9.25776C10.104 9.33151 10.1203 9.41089 10.1203 9.49109C10.1203 9.5713 10.104 9.65068 10.0725 9.72443C10.041 9.79819 9.99487 9.86479 9.9369 9.92022C9.87893 9.97565 9.81033 10.0188 9.73524 10.047C9.66015 10.0752 9.58013 10.0878 9.5 10.0842C9.34727 10.0774 9.20307 10.0119 9.09742 9.90145C8.99176 9.79096 8.9328 9.64397 8.9328 9.49109C8.9328 9.33822 8.99176 9.19123 9.09742 9.08074C9.20307 8.97025 9.34727 8.90477 9.5 8.89794ZM11.872 8.89794C11.9522 8.89435 12.0322 8.90704 12.1073 8.93523C12.1824 8.96342 12.251 9.00653 12.3089 9.06197C12.3669 9.1174 12.413 9.184 12.4446 9.25776C12.4761 9.33151 12.4923 9.41089 12.4923 9.49109C12.4923 9.5713 12.4761 9.65068 12.4446 9.72443C12.413 9.79819 12.3669 9.86479 12.3089 9.92022C12.251 9.97565 12.1824 10.0188 12.1073 10.047C12.0322 10.0752 11.9522 10.0878 11.872 10.0842C11.7193 10.0774 11.5751 10.0119 11.4694 9.90145C11.3638 9.79096 11.3048 9.64397 11.3048 9.49109C11.3048 9.33822 11.3638 9.19123 11.4694 9.08074C11.5751 8.97025 11.7193 8.90477 11.872 8.89794ZM14.2441 8.89794C14.4013 8.89786 14.5521 8.96024 14.6634 9.07137C14.7746 9.1825 14.8371 9.33326 14.8372 9.4905C14.8373 9.64774 14.7749 9.79856 14.6638 9.9098C14.5527 10.021 14.4019 10.0836 14.2447 10.0837C14.1668 10.0837 14.0897 10.0684 14.0178 10.0386C13.9458 10.0089 13.8804 9.96525 13.8254 9.91022C13.7703 9.8552 13.7266 9.78986 13.6967 9.71795C13.6669 9.64603 13.6515 9.56895 13.6515 9.49109C13.6515 9.41324 13.6668 9.33614 13.6965 9.26419C13.7263 9.19225 13.7699 9.12687 13.8249 9.07179C13.88 9.01671 13.9453 8.97301 14.0172 8.94318C14.0891 8.91335 14.1662 8.89798 14.2441 8.89794Z" fill="#232325"/>
</g>
<defs>
<clipPath id="clip0_1_226">
<rect width="19" height="19" fill="white"/>
</clipPath>
</defs>
</svg>
