<svg width="21" height="21" viewBox="0 0 21 21" fill="none" xmlns="http://www.w3.org/2000/svg">
<g clip-path="url(#clip0_1_202)">
<path d="M10.92 10.08L0.761248 20.2387C0.275623 19.7794 0.0131226 19.1494 0.0131226 18.4669V2.53311C0.0131226 1.83749 0.288748 1.20749 0.787498 0.734985L10.92 10.08Z" fill="#2196F3"/>
<path d="M19.7006 10.5C19.7006 11.4187 19.2019 12.2325 18.375 12.6919L15.4875 14.2931L11.9044 10.9856L10.92 10.08L14.7131 6.28687L18.375 8.30812C19.2019 8.76749 19.7006 9.58124 19.7006 10.5Z" fill="#FFC107"/>
<path d="M10.92 10.08L0.787506 0.735007C0.918756 0.603757 1.08938 0.485632 1.26001 0.380632C2.08688 -0.118118 3.08438 -0.131243 3.93751 0.341257L14.7131 6.28688L10.92 10.08Z" fill="#4CAF50"/>
<path d="M15.4875 14.2931L3.93751 20.6587C3.53064 20.895 3.07126 21 2.62501 21C2.15251 21 1.68001 20.8818 1.26001 20.6193C1.07775 20.5149 0.910054 20.387 0.761261 20.2387L10.92 10.08L11.9044 10.9856L15.4875 14.2931Z" fill="#F44336"/>
</g>
<defs>
<clipPath id="clip0_1_202">
<rect width="21" height="21" fill="white"/>
</clipPath>
</defs>
</svg>
