<svg width="10" height="11" viewBox="0 0 10 11" fill="none" xmlns="http://www.w3.org/2000/svg">
<path d="M2.23839 9.62515H0.165179V3.19918H2.23839V9.62515ZM1.20067 2.32261C0.537723 2.32261 0 1.7941 0 1.15601C4.74509e-09 0.849515 0.126499 0.555572 0.351668 0.338847C0.576837 0.122121 0.882232 0.000366211 1.20067 0.000366211C1.51911 0.000366211 1.8245 0.122121 2.04967 0.338847C2.27484 0.555572 2.40134 0.849515 2.40134 1.15601C2.40134 1.7941 1.86339 2.32261 1.20067 2.32261ZM9.99777 9.62515H7.92902V6.49703C7.92902 5.75152 7.91339 4.79546 6.85112 4.79546C5.77321 4.79546 5.60804 5.60542 5.60804 6.44332V9.62515H3.53705V3.19918H5.52545V4.07574H5.55446C5.83125 3.57085 6.50737 3.03804 7.51607 3.03804C9.61429 3.03804 10 4.36793 10 6.09527V9.62515H9.99777Z" fill="#4AC87E"/>
</svg>
