<svg width="97" height="88" viewBox="0 0 97 88" fill="none" xmlns="http://www.w3.org/2000/svg">
<path d="M73.8703 33.0836C71.7916 33.0836 69.7546 33.1857 67.7894 33.3828V17.3184C67.7894 12.9783 57.8615 10.707 48.0548 10.707C38.2481 10.707 28.3191 12.9783 28.3191 17.3184V23.3112C26.5943 23.1586 24.8626 23.0787 23.1296 23.0718C13.3229 23.0718 3.39596 25.3431 3.39499 29.6824V63.0344C3.39499 67.3746 13.3229 69.645 23.1296 69.645C24.8626 69.6381 26.5943 69.5583 28.3191 69.4056V70.6807C28.3191 75.0209 38.2471 77.2922 48.0548 77.2922C57.8624 77.2922 67.7894 75.0209 67.7894 70.6807V66.0167C69.7537 66.2138 71.7897 66.3159 73.8703 66.3159C83.677 66.3159 93.605 64.0446 93.605 59.7045V39.6933C93.605 35.354 83.677 33.0836 73.8703 33.0836ZM48.0548 67.9818C37.1684 67.9818 31.2291 65.3585 31.2291 64.0103V60.9646C34.8909 62.935 41.4976 63.9514 48.0548 63.9514C54.612 63.9514 61.2177 62.935 64.8794 60.9646V64.0103C64.8794 65.3585 58.9411 67.9818 48.0548 67.9818ZM31.2291 40.9543C34.8909 42.9246 41.4976 43.941 48.0548 43.941C54.612 43.941 61.2177 42.9246 64.8794 40.9543V44C64.8794 45.3473 58.9411 47.9706 48.0548 47.9706C37.1684 47.9706 31.2291 45.3473 31.2291 44V40.9543ZM31.2291 47.6238C34.8909 49.5942 41.4976 50.6106 48.0548 50.6106C54.612 50.6106 61.2177 49.5942 64.8794 47.6238V50.6704C64.8794 52.0177 58.9411 54.641 48.0548 54.641C37.1684 54.641 31.2291 52.0177 31.2291 50.6704V47.6238ZM31.2291 54.2943C34.8909 56.2646 41.4976 57.281 48.0548 57.281C54.612 57.281 61.2177 56.2646 64.8794 54.2943V57.3408C64.8794 58.6881 58.9411 61.3114 48.0548 61.3114C37.1684 61.3114 31.2291 58.6881 31.2291 57.3408V54.2943ZM48.0548 41.301C37.1684 41.301 31.2291 38.6778 31.2291 37.3296V34.2839C34.8909 36.2542 41.4976 37.2706 48.0548 37.2706C54.612 37.2706 61.2177 36.2542 64.8794 34.2839V37.3296C64.8794 38.6778 58.9411 41.301 48.0548 41.301ZM48.0548 34.6306C37.1684 34.6306 31.2291 32.0074 31.2291 30.6592V27.6135C34.8909 29.5838 41.4976 30.6002 48.0548 30.6002C54.612 30.6002 61.2177 29.5838 64.8794 27.6135V30.6592C64.8794 32.0074 58.9411 34.6306 48.0548 34.6306ZM48.0548 27.9594C37.1684 27.9594 31.2291 25.3361 31.2291 23.9888V20.9475C31.2563 20.9625 31.2873 20.9757 31.3145 20.9898C31.4988 21.0874 31.6899 21.1825 31.8887 21.2749L31.9615 21.3101C32.1914 21.4157 32.4329 21.5178 32.6812 21.6172L32.8355 21.677C33.0576 21.7642 33.2865 21.8486 33.5222 21.9305L33.6153 21.963C37.4012 23.2628 42.744 23.9299 48.0548 23.9299C53.3674 23.9299 58.7131 23.2619 62.499 21.9613L62.5786 21.934C62.8191 21.8504 63.0529 21.7642 63.2799 21.6753L63.4234 21.6199C63.6737 21.5195 63.9162 21.4174 64.149 21.311L64.2111 21.281C64.4138 21.1869 64.6078 21.0901 64.796 20.9907L64.8804 20.9493V23.9915C64.8794 25.337 58.9411 27.9594 48.0548 27.9594ZM48.0548 13.347C58.9411 13.347 64.8794 15.9703 64.8794 17.3184C64.8794 18.6657 58.9411 21.289 48.0548 21.289C37.1684 21.289 31.2291 18.6657 31.2291 17.3184C31.2291 15.9703 37.1684 13.347 48.0548 13.347ZM23.1296 25.7118C24.8873 25.7118 26.6275 25.7875 28.3191 25.9389V33.4048C27.8904 33.4426 27.4636 33.484 27.03 33.5122C26.7283 33.5324 26.4305 33.5571 26.1269 33.572C25.1292 33.6246 24.13 33.6519 23.1306 33.6538C20.4088 33.6538 17.9964 33.4902 15.909 33.2226C9.64664 32.4218 6.30596 30.6935 6.30596 29.6824C6.30596 28.3351 12.2443 25.7118 23.1296 25.7118ZM6.30499 33.3115C6.32439 33.3221 6.34767 33.3318 6.36804 33.3423C6.62412 33.4778 6.89378 33.6098 7.17799 33.7366L7.32446 33.7999C7.63068 33.9342 7.94157 34.0595 8.25663 34.1757C8.57867 34.2945 8.9172 34.4062 9.26446 34.5154L9.44973 34.5734C9.78632 34.6764 10.1336 34.775 10.4905 34.8682L10.6952 34.921C11.0687 35.0161 11.4499 35.1085 11.8417 35.1938L11.8844 35.2026C12.2889 35.2906 12.7041 35.3725 13.126 35.4499L13.2298 35.4693C13.6595 35.5467 14.0989 35.6189 14.5451 35.6849L14.6489 35.6999C17.3135 36.0932 20.2264 36.2938 23.1316 36.2938C23.2024 36.2938 23.2722 36.2886 23.344 36.2877C24.3767 36.2852 25.4092 36.2571 26.4402 36.2032L26.6595 36.1935C27.2143 36.1632 27.7685 36.125 28.322 36.0791V40.0778C26.5995 40.2397 24.8691 40.3234 23.1374 40.3286C12.2482 40.3286 6.3079 37.701 6.3079 36.351V33.3115H6.30499ZM6.30499 39.9784C9.96771 41.9505 16.5753 42.9686 23.1345 42.9686C24.9067 42.9686 26.6323 42.8718 28.3191 42.7284V46.7491C26.5966 46.9109 24.8662 46.9946 23.1345 46.9999C12.2453 46.9999 6.30499 44.3722 6.30499 43.0223V39.9784ZM6.30499 46.6488C9.96771 48.6209 16.5753 49.639 23.1345 49.639C24.9067 49.639 26.6323 49.5422 28.3191 49.3988V53.4195C26.5966 53.5813 24.8662 53.665 23.1345 53.6703C12.2453 53.6703 6.30499 51.0426 6.30499 49.6927V46.6488ZM6.30499 53.3192C9.96771 55.2913 16.5753 56.3094 23.1345 56.3094C24.9067 56.3094 26.6323 56.2126 28.3191 56.0692V60.0899C26.5966 60.2517 24.8662 60.3354 23.1345 60.3407C12.2453 60.3407 6.30499 57.7131 6.30499 56.3631V53.3192ZM23.1296 67.0058C12.2433 67.0058 6.30499 64.3826 6.30499 63.0353V59.9896C9.96771 61.9617 16.5753 62.9798 23.1345 62.9798C24.9067 62.9798 26.6323 62.883 28.3191 62.7396V66.7797C26.5944 66.9316 24.8625 67.0071 23.1296 67.0058ZM48.0548 74.653C37.1684 74.653 31.2291 72.0298 31.2291 70.6816V67.6359C34.8909 69.6062 41.4976 70.6226 48.0548 70.6226C54.612 70.6226 61.2177 69.6062 64.8794 67.6359V70.6816C64.8794 72.0298 58.9411 74.653 48.0548 74.653ZM73.8703 63.6759C71.7839 63.6759 69.7449 63.5703 67.7894 63.3635V59.3507C69.742 59.5434 71.7761 59.6446 73.8655 59.6446C80.4246 59.6446 87.0323 58.6283 90.695 56.6588V59.7062C90.695 61.0526 84.7566 63.6759 73.8703 63.6759ZM73.8655 57.0038C71.7674 57.0038 69.7333 56.8946 67.7894 56.6905V52.6803C69.742 52.873 71.7771 52.9734 73.8655 52.9734C80.4246 52.9734 87.0323 51.957 90.695 49.9875V53.035C90.695 54.3822 84.7547 57.0038 73.8655 57.0038ZM73.8655 50.3334C71.7683 50.3334 69.7333 50.2242 67.7894 50.0201V46.009C67.8301 46.0134 67.8728 46.0161 67.9136 46.0196C68.0717 46.0354 68.2337 46.0469 68.3928 46.061C68.7963 46.097 69.2008 46.1305 69.6111 46.1578C69.9011 46.178 70.1931 46.193 70.485 46.2088C71.1245 46.2414 71.7644 46.2658 72.4047 46.2818L72.7451 46.2871C73.1196 46.2933 73.492 46.3047 73.8694 46.3047C79.3353 46.3047 84.8352 45.599 88.6366 44.2226L88.6677 44.2121C89.0082 44.088 89.3321 43.9578 89.6445 43.8231L89.79 43.7606C90.0829 43.6304 90.3623 43.4949 90.6271 43.355C90.6484 43.3435 90.6736 43.3338 90.695 43.3224V46.3654C90.695 47.7118 84.7547 50.3334 73.8655 50.3334ZM73.8703 43.6647C72.9333 43.6647 72.0099 43.6366 71.0952 43.5943C70.9196 43.5864 70.7431 43.5794 70.5685 43.5697C69.7011 43.5223 68.8353 43.4545 67.9718 43.3664L67.7904 43.3462V36.036C69.809 35.8251 71.8394 35.7208 73.8713 35.7236C84.7576 35.7236 90.696 38.3469 90.696 39.6942C90.696 41.0414 84.7566 43.6647 73.8703 43.6647Z" fill="#19191B"/>
</svg>
