<svg width="22" height="23" viewBox="0 0 22 23" fill="none" xmlns="http://www.w3.org/2000/svg">
<path d="M5.57873 22.1243C4.72778 22.1149 3.88484 21.9606 3.0869 21.6683C2.50421 21.4555 1.97703 21.1166 1.54388 20.6765C1.09736 20.2493 0.753971 19.7282 0.539216 19.1518C0.243672 18.3632 0.0878236 17.5303 0.0785098 16.6894C0.0131569 15.2915 0 14.8722 0 11.3302C0 7.7882 0.014451 7.37041 0.0778627 5.97146C0.0883068 5.13094 0.244347 4.29839 0.539216 3.50993C0.755016 2.93398 1.09792 2.41276 1.54302 1.98415C1.97563 1.54326 2.50306 1.20422 3.08625 0.99212C3.88419 0.699801 4.72713 0.545563 5.57808 0.536178C6.99298 0.472231 7.41788 0.459229 11 0.459229C14.5821 0.459229 15.0068 0.47351 16.4224 0.536178C17.2731 0.546427 18.1157 0.700638 18.9137 0.99212C19.4967 1.2045 20.024 1.54343 20.4568 1.98394C20.9026 2.4118 21.2457 2.93304 21.4608 3.50929C21.7566 4.29785 21.9128 5.13091 21.9224 5.97189C21.9871 7.37084 22.0002 7.78969 22.0002 11.3306C22.0002 14.8716 21.9871 15.2905 21.9224 16.6894C21.9121 17.5302 21.756 18.3631 21.4608 19.1518C21.2375 19.7237 20.8955 20.2431 20.4568 20.6765C20.0182 21.11 19.4925 21.4478 18.9137 21.6683C18.1158 21.9607 17.2729 22.115 16.4219 22.1245C15.0077 22.1884 14.5825 22.2014 10.9996 22.2014C7.41659 22.2014 6.99276 22.1891 5.57851 22.1245" fill="white"/>
</svg>
