<svg width="97" height="88" viewBox="0 0 97 88" fill="none" xmlns="http://www.w3.org/2000/svg">
<g clip-path="url(#clip0_1_24)">
<path d="M57.1542 17.6412C64.3704 19.5894 70.5292 23.9042 74.4314 29.7456C78.3337 35.5869 79.7002 42.5366 78.2648 49.2417C76.8294 55.9468 72.6949 61.9273 66.6663 66.0189C60.6377 70.1105 53.1464 72.0203 45.651 71.3764C38.1556 70.7326 31.1925 67.5812 26.1175 62.5359C21.0424 57.4905 18.2186 50.9123 18.1959 44.0819C18.1732 37.2516 20.9531 30.658 25.9945 25.5849C31.0358 20.5119 37.9778 17.3224 45.4687 16.6375M79.4187 26.62C82.9928 31.8366 84.8831 37.8578 84.875 44M66.3389 15.235C69.2397 16.6953 71.9067 18.5088 74.2656 20.625M28.4331 71.5C26.3867 70.3008 24.4776 68.9189 22.7344 67.375" stroke="#434A54" stroke-width="2" stroke-linecap="round" stroke-linejoin="round"/>
<path d="M67.3544 34.375L29.6456 81.125L53.0166 42.625H31.7978L50.6067 6.875H64.2473L46.1356 34.375H67.3544Z" stroke="#434A54" stroke-width="2" stroke-linecap="round" stroke-linejoin="round"/>
</g>
<defs>
<clipPath id="clip0_1_24">
<rect width="97" height="88" fill="white"/>
</clipPath>
</defs>
</svg>
