<svg width="97" height="88" viewBox="0 0 97 88" fill="none" xmlns="http://www.w3.org/2000/svg">
<g clip-path="url(#clip0_1_33)">
<path d="M47.9093 31.7852C48.0947 31.862 48.2961 31.9018 48.4999 31.9018C48.7037 31.9018 48.9052 31.862 49.0905 31.7852C51.6078 30.7484 53.8451 29.2254 55.6462 27.3228C58.2538 24.5394 59.6323 21.202 59.6323 17.6711V11.9528C59.6322 11.6241 59.4938 11.3079 59.2452 11.0687C58.9967 10.8295 58.6568 10.6856 58.2951 10.6662C55.9149 10.551 53.5966 9.93678 51.5222 8.87181C50.7796 8.481 50.0785 8.02858 49.4279 7.52036C49.17 7.31849 48.8406 7.20743 48.4999 7.20743C48.1592 7.20743 47.8299 7.31849 47.5719 7.52036C46.9215 8.02861 46.2204 8.48098 45.4778 8.87164C43.4034 9.93659 41.0851 10.5508 38.7049 10.666C38.3432 10.6854 38.0033 10.8294 37.7547 11.0686C37.5062 11.3078 37.3677 11.6241 37.3677 11.9528V17.6711C37.3677 21.2021 38.7464 24.5399 41.3544 27.3231C43.1553 29.2257 45.3923 30.7485 47.9093 31.7852ZM40.2095 13.1257C42.5668 12.8594 44.8424 12.1713 46.9044 11.1014C47.4558 10.8111 47.9885 10.4926 48.5 10.1475C49.0115 10.4926 49.5442 10.8111 50.0956 11.1014C52.1577 12.1714 54.4333 12.8594 56.7907 13.1257V17.6711C56.7907 20.582 55.6462 23.3421 53.4803 25.6535C52.0945 27.1178 50.4016 28.3174 48.5 29.1826C46.5986 28.3176 44.9058 27.1181 43.52 25.654C41.3542 23.3425 40.2095 20.5822 40.2095 17.6711V13.1257ZM96.584 40.3626C96.452 40.2428 96.2954 40.1479 96.1229 40.0831C95.9505 40.0183 95.7657 39.9849 95.5791 39.9849C95.3925 39.9849 95.2077 40.0183 95.0353 40.0831C94.8629 40.1479 94.7062 40.2428 94.5742 40.3626L86.3596 47.8151L66.8751 29.7658C68.3975 27.5211 69.4007 25.0188 69.8233 22.4113L75.361 17.3516C75.4925 17.2315 75.5967 17.089 75.6675 16.9324C75.7383 16.7758 75.7744 16.608 75.7737 16.4388C75.7731 16.2695 75.7357 16.102 75.6637 15.9458C75.5917 15.7896 75.4864 15.6478 75.354 15.5285C75.2216 15.4092 75.0646 15.3148 74.892 15.2505C74.7193 15.1863 74.5344 15.1536 74.3478 15.1541C74.1612 15.1547 73.9766 15.1887 73.8044 15.254C73.6323 15.3193 73.476 15.4148 73.3445 15.5349L70.0272 18.5659C69.7457 13.5279 67.329 8.7835 63.2821 5.32411C59.2352 1.86472 53.8712 -0.0419939 48.311 0.00240633C42.7509 0.0468066 37.4247 2.03888 33.4456 5.56237C29.4664 9.08585 27.1421 13.8681 26.9584 18.9098L23.1042 15.518C22.833 15.2834 22.4706 15.1554 22.0959 15.162C21.7212 15.1686 21.3646 15.3093 21.1036 15.5533C20.8427 15.7973 20.6986 16.125 20.7027 16.465C20.7068 16.8049 20.8588 17.1297 21.1255 17.3685L27.236 22.7461C27.6975 25.2858 28.7105 27.717 30.2163 29.8987L10.759 47.9228L2.42557 40.3626C2.29415 40.2408 2.13741 40.1438 1.96442 40.0774C1.79143 40.0109 1.60563 39.9762 1.41777 39.9753C1.2299 39.9744 1.0437 40.0073 0.869942 40.0721C0.696183 40.1369 0.538314 40.2323 0.405471 40.3528C0.272628 40.4733 0.167448 40.6166 0.0960159 40.7742C0.0245841 40.9318 -0.0116806 41.1008 -0.0106801 41.2712C-0.0096795 41.4416 0.0285665 41.6102 0.101845 41.7671C0.175124 41.9241 0.28198 42.0663 0.41623 42.1855L9.51415 50.4394C9.63493 50.6284 9.80807 50.7854 10.0164 50.8949L11.2677 52.0301C11.9256 52.6308 12.7084 53.1071 13.5707 53.4313C14.433 53.7555 15.3577 53.9212 16.2911 53.9189C16.9522 53.919 17.6101 53.8357 18.2459 53.6714C18.2818 54.5466 18.3867 55.4184 18.5598 56.2801C17.8977 56.5558 17.2952 56.9365 16.7804 57.4042L13.6611 60.2341C12.8 61.0153 12.2136 62.0106 11.976 63.0942C11.7385 64.1778 11.8604 65.3009 12.3264 66.3216C12.7925 67.3423 13.5816 68.2147 14.5942 68.8285C15.6067 69.4424 16.7971 69.77 18.0149 69.7701C18.2066 69.7701 18.3968 69.7613 18.5852 69.7456C18.5056 70.5192 18.6048 71.2993 18.8766 72.0361C19.1484 72.7728 19.5867 73.45 20.1635 74.0243C20.7403 74.5985 21.4428 75.0573 22.2263 75.3711C23.0097 75.6849 23.8566 75.8469 24.713 75.8467C24.9038 75.8467 25.0931 75.8381 25.2806 75.8226C25.2636 75.9928 25.2541 76.1643 25.2541 76.3372C25.2538 77.0707 25.4129 77.7971 25.7222 78.4748C26.0316 79.1525 26.4852 79.7682 27.057 80.2868C27.6289 80.8053 28.3078 81.2165 29.0549 81.4969C29.8021 81.7772 30.6028 81.9212 31.4113 81.9206C31.6008 81.9206 31.79 81.9126 31.9791 81.8965C31.9619 82.0675 31.9522 82.2403 31.9522 82.414C31.95 83.1479 32.1083 83.8748 32.4179 84.5528C32.7275 85.2307 33.1822 85.8463 33.7558 86.3637C34.9115 87.4096 36.4772 87.9971 38.1095 87.9971C39.7419 87.9971 41.3076 87.4098 42.4633 86.3639L44.515 84.5025L46.5668 86.3642C47.462 87.1771 48.6118 87.7196 49.8593 87.9177C51.1069 88.1158 52.3914 87.9599 53.5377 87.4713C54.684 86.9826 55.6362 86.185 56.2644 85.1873C56.8925 84.1896 57.1661 83.0403 57.0477 81.8963C57.2376 81.9123 57.4279 81.9203 57.6188 81.9204C58.4272 81.921 59.2279 81.777 59.975 81.4966C60.7221 81.2163 61.401 80.8051 61.9728 80.2866C62.5447 79.7681 62.9982 79.1524 63.3076 78.4748C63.617 77.7972 63.7762 77.0709 63.776 76.3374C63.776 76.1643 63.7665 75.9928 63.7495 75.8226C63.937 75.8381 64.1261 75.8467 64.3167 75.8467C65.9497 75.8466 67.5158 75.258 68.6705 74.2104C69.8252 73.1629 70.474 71.7421 70.4741 70.2606C70.4741 70.0875 70.4646 69.916 70.4476 69.7456C70.6351 69.7611 70.8242 69.7697 71.015 69.7697C72.2327 69.7697 73.4231 69.4421 74.4356 68.8283C75.4482 68.2145 76.2373 67.3421 76.7033 66.3214C77.1694 65.3008 77.2913 64.1777 77.0538 63.0941C76.8162 62.0106 76.2299 61.0153 75.3688 60.2341L73.6467 58.6717C75.6487 57.29 77.3581 55.5905 78.6918 53.6556C79.3468 53.8305 80.0261 53.9192 80.7089 53.9189C81.6422 53.9212 82.5668 53.7556 83.429 53.4314C84.2912 53.1073 85.074 52.6312 85.7319 52.0307L96.5838 42.1857C96.7157 42.066 96.8204 41.9238 96.8918 41.7674C96.9632 41.611 97 41.4434 97 41.2741C97 41.1048 96.9632 40.9372 96.8918 40.7808C96.8204 40.6244 96.7159 40.4823 96.584 40.3626ZM29.9806 21.9902C29.9787 21.9716 29.9749 21.9532 29.9721 21.9348C29.5427 19.1983 29.8563 16.4081 30.8856 13.8066C31.9149 11.205 33.6288 8.87079 35.8784 7.00669C38.1281 5.14258 40.8454 3.80498 43.7943 3.11006C46.7432 2.41514 49.8345 2.38394 52.7997 3.01915C55.7649 3.65437 58.5144 4.93679 60.8091 6.75502C63.1039 8.57325 64.8747 10.8723 65.9675 13.4524C67.0604 16.0326 67.4424 18.8158 67.0802 21.5602C66.7181 24.3047 65.6228 26.9275 63.8895 29.2007L63.88 29.2129C61.7424 32.0172 58.7232 34.1723 55.216 35.3975C51.7087 36.6226 47.876 36.8609 44.2173 36.0814C40.5586 35.3019 37.2436 33.5406 34.7042 31.0272C32.1647 28.5137 30.5187 25.3646 29.9806 21.9902ZM16.2911 51.3407C15.7311 51.3421 15.1763 51.2427 14.659 51.0481C14.1417 50.8536 13.6721 50.5678 13.2774 50.2074L12.7688 49.7459L31.9047 32.0193C33.0302 33.2501 34.3165 34.3522 35.7354 35.3012L19.3032 50.2088C18.9086 50.5688 18.4392 50.8542 17.9221 51.0485C17.4051 51.2428 16.8507 51.3421 16.2911 51.3407ZM20.3592 66.3109C20.0514 66.5902 19.6859 66.8118 19.2837 66.963C18.8814 67.1141 18.4503 67.1919 18.0149 67.1919C17.5795 67.1919 17.1484 67.1141 16.7462 66.963C16.3439 66.8118 15.9785 66.5902 15.6706 66.3109C15.0489 65.7468 14.6996 64.9816 14.6996 64.1839C14.6996 63.3862 15.0489 62.6212 15.6706 62.0572L18.7898 59.2274C19.0971 58.9461 19.4627 58.7226 19.8656 58.5698C20.2684 58.417 20.7005 58.3379 21.1371 58.3371C21.5737 58.3362 22.0062 58.4136 22.4098 58.5647C22.8133 58.7159 23.18 58.9379 23.4887 59.218C23.7975 59.4981 24.0422 59.8307 24.2088 60.1968C24.3755 60.5629 24.4608 60.9553 24.4599 61.3514C24.4589 61.7475 24.3717 62.1395 24.2033 62.505C24.0349 62.8704 23.7886 63.2021 23.4785 63.481L20.3592 66.3109ZM24.713 73.2686C24.2775 73.2696 23.846 73.1922 23.4436 73.041C23.0412 72.8898 22.6759 72.6677 22.3687 72.3875V72.3874C21.7479 71.8228 21.3993 71.058 21.3993 70.2606C21.3993 69.4632 21.7479 68.6983 22.3687 68.1338L25.4879 65.3039C26.1097 64.7398 26.953 64.4229 27.8324 64.4229C28.7117 64.4229 29.5551 64.7398 30.1769 65.3039C30.7986 65.868 31.148 66.6331 31.148 67.4308C31.148 68.2286 30.7986 68.9937 30.1769 69.5578L27.0575 72.3875C26.7503 72.6677 26.3849 72.8898 25.9825 73.041C25.5801 73.1923 25.1486 73.2696 24.713 73.2686ZM29.0668 78.4642C28.4451 77.9001 28.0959 77.1351 28.0959 76.3374C28.0959 75.5397 28.4451 74.7747 29.0668 74.2106L32.1862 71.3807C32.808 70.8166 33.6513 70.4997 34.5306 70.4997C35.4099 70.4997 36.2532 70.8166 36.875 71.3807C37.4967 71.9448 37.846 72.7098 37.846 73.5076C37.846 74.3053 37.4967 75.0703 36.875 75.6344L33.7556 78.4642C33.1334 79.0275 32.2903 79.3439 31.4112 79.3439C30.5322 79.3439 29.6891 79.0275 29.0668 78.4642ZM43.5733 81.7109L40.4539 84.5408C39.8317 85.1042 38.9885 85.4206 38.1094 85.4206C37.2304 85.4206 36.3872 85.1042 35.765 84.5408V84.541C35.4571 84.2617 35.2129 83.9301 35.0462 83.5652C34.8796 83.2002 34.7939 82.8091 34.7939 82.4141C34.7939 82.0191 34.8796 81.628 35.0462 81.2631C35.2129 80.8981 35.4571 80.5666 35.765 80.2873L38.8843 77.4573C39.5061 76.8932 40.3493 76.5763 41.2287 76.5763C42.108 76.5762 42.9513 76.8931 43.5731 77.4572C44.1949 78.0212 44.5442 78.7863 44.5443 79.584C44.5443 80.3817 44.195 81.1468 43.5733 81.7109ZM74.3306 64.1839C74.3306 64.7788 74.1362 65.3604 73.7719 65.855C73.4075 66.3497 72.8897 66.7352 72.2839 66.9629C71.6781 67.1905 71.0114 67.2501 70.3683 67.134C69.7251 67.0179 69.1344 66.7314 68.6707 66.3107L58.4895 57.0742C58.3575 56.9544 58.2009 56.8595 58.0285 56.7947C57.8561 56.7299 57.6713 56.6965 57.4847 56.6965C57.2981 56.6965 57.1133 56.7299 56.9409 56.7946C56.7685 56.8594 56.6118 56.9544 56.4799 57.0741C56.3479 57.1938 56.2432 57.3359 56.1718 57.4923C56.1004 57.6487 56.0636 57.8163 56.0636 57.9856C56.0636 58.1549 56.1003 58.3226 56.1717 58.479C56.2432 58.6354 56.3478 58.7775 56.4798 58.8972L66.661 68.1338C66.9727 68.4123 67.2207 68.744 67.3904 69.1099C67.5602 69.4757 67.6485 69.8684 67.6502 70.2654C67.6519 70.6623 67.5669 71.0556 67.4003 71.4227C67.2336 71.7897 66.9885 72.1232 66.6791 72.4038C66.3698 72.6845 66.0022 72.9069 65.5976 73.0581C65.1931 73.2093 64.7595 73.2863 64.322 73.2848C63.8844 73.2833 63.4516 73.2032 63.0483 73.0491C62.6451 72.8951 62.2794 72.6702 61.9724 72.3874L51.7914 63.1508C51.5249 62.909 51.1635 62.7732 50.7866 62.7732C50.4097 62.7732 50.0483 62.909 49.7818 63.1508C49.5154 63.3926 49.3657 63.7204 49.3657 64.0623C49.3657 64.4042 49.5154 64.7321 49.7818 64.9739L59.9629 74.2104C60.2758 74.4887 60.5248 74.8205 60.6955 75.1866C60.8663 75.5527 60.9553 75.9459 60.9575 76.3434C60.9597 76.7409 60.875 77.1349 60.7084 77.5025C60.5417 77.8702 60.2963 78.2042 59.9865 78.4853C59.6767 78.7664 59.3085 78.989 58.9033 79.1402C58.498 79.2914 58.0638 79.3682 57.6256 79.3663C57.1874 79.3643 56.754 79.2835 56.3505 79.1287C55.9469 78.9738 55.5812 78.7479 55.2745 78.464L45.0931 69.2274C44.9611 69.1077 44.8045 69.0127 44.6321 68.9479C44.4597 68.8831 44.2749 68.8497 44.0883 68.8497C43.9017 68.8496 43.7169 68.8829 43.5444 68.9477C43.372 69.0125 43.2153 69.1074 43.0833 69.2271C42.9514 69.3468 42.8467 69.4889 42.7752 69.6453C42.7038 69.8017 42.667 69.9693 42.6669 70.1386C42.6669 70.308 42.7036 70.4756 42.775 70.632C42.8464 70.7885 42.951 70.9306 43.083 71.0503L53.2642 80.2869C53.576 80.5654 53.824 80.8971 53.9938 81.2629C54.1637 81.6287 54.252 82.0214 54.2538 82.4184C54.2555 82.8153 54.1707 83.2086 54.0041 83.5757C53.8375 83.9427 53.5924 84.2762 53.2831 84.5569C52.9738 84.8377 52.6062 85.0601 52.2017 85.2113C51.7972 85.3626 51.3636 85.4397 50.9261 85.4382C50.4886 85.4368 50.0557 85.3567 49.6524 85.2028C49.2491 85.0488 48.8834 84.824 48.5764 84.5412L46.4215 82.5863C47.0145 81.7418 47.3465 80.7683 47.3826 79.7675C47.4187 78.7668 47.1577 77.7757 46.6269 76.8978C46.0961 76.02 45.315 75.2877 44.3653 74.7775C43.4156 74.2674 42.3323 73.9983 41.2286 73.9982C41.038 73.9982 40.8487 74.0068 40.6612 74.0222C40.6782 73.8521 40.6877 73.6805 40.6877 73.5076C40.6876 72.0262 40.0389 70.6054 38.8842 69.5578C37.7295 68.5103 36.1635 67.9217 34.5305 67.9215C34.3399 67.9215 34.1506 67.9301 33.9631 67.9456C33.9801 67.7754 33.9896 67.6039 33.9896 67.4308C33.9894 65.9494 33.3407 64.5287 32.186 63.4811C31.0314 62.4336 29.4653 61.845 27.8324 61.8449C27.6416 61.8449 27.4523 61.8535 27.2648 61.869C27.2818 61.6988 27.2913 61.5271 27.2913 61.3542C27.2922 59.9059 26.6723 58.5141 25.5625 57.473C24.4528 56.4319 22.9403 55.8232 21.3447 55.7755C21.1144 54.6067 21.0295 53.4182 21.0916 52.2323L21.3127 52.0317L21.3146 52.03L21.3154 52.0293L38.1261 36.7785C38.1468 36.7597 38.165 36.7398 38.1841 36.72C40.4121 37.8272 42.8396 38.5654 45.353 38.9003L36.7651 47.6076C36.0132 48.3708 35.6117 49.366 35.643 50.3892C35.6743 51.4124 36.1359 52.3859 36.9333 53.11C38.4466 54.4797 40.497 55.2489 42.6347 55.2489C44.7723 55.2489 46.8227 54.4796 48.3359 53.1099L55.9156 46.2318L73.3593 62.0572C73.6682 62.3358 73.9131 62.6672 74.0798 63.0323C74.2465 63.3973 74.3318 63.7888 74.3306 64.1839ZM74.7883 54.1497C73.8524 55.1545 72.7874 56.0541 71.6161 56.8296L57.1499 43.7055C57.0641 43.645 56.9868 43.5752 56.9197 43.4976C56.7878 43.3779 56.6311 43.2829 56.4588 43.2181C56.2864 43.1533 56.1016 43.1199 55.915 43.1199C55.7284 43.1199 55.5436 43.1533 55.3713 43.2181C55.1989 43.2829 55.0423 43.3779 54.9103 43.4976L46.3262 51.287C45.3463 52.1738 44.0187 52.6719 42.6345 52.6719C41.2504 52.6719 39.9227 52.1738 38.9428 51.287C38.6588 51.0289 38.4944 50.682 38.4833 50.3175C38.4722 49.953 38.6153 49.5984 38.8832 49.3265L48.9655 39.1039C52.432 39.0399 55.8295 38.2132 58.8659 36.6948C59.0542 36.9165 59.258 37.1269 59.4762 37.3249L75.6854 52.0301C75.8426 52.1728 76.0065 52.3074 76.1753 52.4349C75.7544 53.0331 75.291 53.6059 74.7883 54.1497ZM83.722 50.2079C83.3264 50.5671 82.8566 50.852 82.3395 51.0463C81.8225 51.2407 81.2683 51.3407 80.7086 51.3406C80.1489 51.3406 79.5948 51.2405 79.0778 51.046C78.5607 50.8516 78.091 50.5666 77.6955 50.2074L61.4857 35.5018C61.4129 35.4348 61.3427 35.3655 61.2754 35.294C62.7353 34.316 64.0545 33.176 65.2022 31.9007L84.3498 49.6383L83.722 50.2079Z" fill="#232325" fill-opacity="0.63"/>
</g>
<defs>
<clipPath id="clip0_1_33">
<rect width="97" height="88" fill="white"/>
</clipPath>
</defs>
</svg>
