<svg width="19" height="19" viewBox="0 0 19 19" fill="none" xmlns="http://www.w3.org/2000/svg">
<path d="M9.5001 6.3125C10.0873 6.3125 10.6612 6.13839 11.1494 5.81218C11.6377 5.48597 12.0182 5.02231 12.2429 4.47984C12.4676 3.93737 12.5264 3.34046 12.4118 2.76458C12.2973 2.1887 12.0145 1.65972 11.5993 1.24453C11.1841 0.829341 10.6552 0.546595 10.0793 0.432045C9.50339 0.317495 8.90648 0.376286 8.36401 0.600984C7.82154 0.825682 7.35789 1.20619 7.03168 1.6944C6.70547 2.18261 6.53135 2.75659 6.53135 3.34375C6.53135 4.13111 6.84413 4.88623 7.40088 5.44297C7.95763 5.99972 8.71274 6.3125 9.5001 6.3125ZM9.5001 1.5625C9.8524 1.5625 10.1968 1.66697 10.4897 1.8627C10.7826 2.05842 11.0109 2.33662 11.1458 2.6621C11.2806 2.98758 11.3159 3.34573 11.2471 3.69126C11.1784 4.03678 11.0087 4.35417 10.7596 4.60329C10.5105 4.8524 10.1931 5.02205 9.84761 5.09078C9.50208 5.15951 9.14393 5.12423 8.81845 4.98941C8.49297 4.85459 8.21477 4.62629 8.01905 4.33336C7.82332 4.04044 7.71885 3.69605 7.71885 3.34375C7.71885 2.87133 7.90652 2.41827 8.24057 2.08422C8.57462 1.75017 9.02768 1.5625 9.5001 1.5625ZM11.5307 6.90625H7.46948C6.4006 6.94037 5.38892 7.39716 4.65646 8.17637C3.924 8.95558 3.5306 9.99356 3.5626 11.0625V14.0313C3.5626 14.1887 3.62516 14.3397 3.73651 14.4511C3.84786 14.5624 3.99888 14.625 4.15635 14.625H14.8439C15.0013 14.625 15.1523 14.5624 15.2637 14.4511C15.375 14.3397 15.4376 14.1887 15.4376 14.0313V11.0625C15.4696 9.99356 15.0762 8.95558 14.3437 8.17637C13.6113 7.39716 12.5996 6.94037 11.5307 6.90625ZM14.2501 13.4375H4.7501V11.0625C4.71789 10.3084 4.98611 9.57238 5.49592 9.01582C6.00572 8.45926 6.71548 8.12766 7.46948 8.09375H11.5307C12.2847 8.12766 12.9945 8.45926 13.5043 9.01582C14.0141 9.57238 14.2823 10.3084 14.2501 11.0625V13.4375Z" fill="#231F20"/>
</svg>
