<svg width="22" height="23" viewBox="0 0 22 23" fill="none" xmlns="http://www.w3.org/2000/svg">
<path fill-rule="evenodd" clip-rule="evenodd" d="M21.6046 19.3666C20.9255 21.4059 18.265 22.4234 16.3642 22.2538C13.7681 22.0219 10.9433 20.6609 8.79904 19.1622C5.64715 16.9591 2.69472 13.5515 0.974309 9.93522C-0.241567 7.3799 -0.514369 4.23757 1.29405 1.90836C1.96285 1.04741 2.68739 0.587945 3.77273 0.534316C5.28048 0.461846 5.49168 1.3141 6.00942 2.64176C6.39515 3.63461 6.90996 4.64775 7.19743 5.67684C7.7357 7.59731 5.85395 7.67703 5.61635 9.24674C5.46968 10.2367 6.68262 11.5644 7.23116 12.2702C8.28847 13.645 9.58344 14.8241 11.0563 15.7532C11.8923 16.2735 13.2387 17.2113 14.1949 16.6938C15.6675 15.8967 15.5296 13.4428 17.5874 14.2733C18.6537 14.7023 19.6862 15.3212 20.7041 15.8633C22.2778 16.6996 22.2045 17.5664 21.6046 19.3666C22.0534 18.0215 21.1558 20.7116 21.6046 19.3666Z" fill="white"/>
</svg>
