<svg width="24" height="20" viewBox="0 0 24 20" fill="none" xmlns="http://www.w3.org/2000/svg">
<path d="M21.75 0.600708H2.25C1.65326 0.600708 1.08097 0.846137 0.65901 1.283C0.237053 1.71987 0 2.31239 0 2.93021L0 16.9072C0 17.525 0.237053 18.1175 0.65901 18.5544C1.08097 18.9913 1.65326 19.2367 2.25 19.2367H21.75C22.3467 19.2367 22.919 18.9913 23.341 18.5544C23.7629 18.1175 24 17.525 24 16.9072V2.93021C24 2.31239 23.7629 1.71987 23.341 1.283C22.919 0.846137 22.3467 0.600708 21.75 0.600708ZM19.101 2.15371L12 7.95882L4.899 2.15371H19.101ZM3 17.6837V4.70994L12 11.877L21 4.70839V17.6837H3Z" fill="white"/>
</svg>
