<svg width="14" height="12" viewBox="0 0 14 12" fill="none" xmlns="http://www.w3.org/2000/svg">
<path fill-rule="evenodd" clip-rule="evenodd" d="M13.4759 1.90399C12.9716 2.11502 12.4368 2.2535 11.8891 2.31481C12.4618 1.98997 12.8998 1.47724 13.1019 0.868957C12.5602 1.17249 11.9678 1.3868 11.3501 1.50271C10.9716 1.11861 10.4794 0.85125 9.93773 0.73552C9.39607 0.619789 8.8301 0.661056 8.31362 0.853939C7.79715 1.04682 7.35416 1.38237 7.04244 1.8168C6.73071 2.25123 6.56473 2.76439 6.56613 3.28933C6.56546 3.48976 6.5892 3.68958 6.63688 3.88487C5.53798 3.83278 4.46294 3.56288 3.4815 3.09269C2.50006 2.62251 1.63415 1.96253 0.939944 1.15558C0.58483 1.73082 0.475638 2.41258 0.634705 3.0614C0.793772 3.71023 1.20908 4.27709 1.79566 4.64602C1.35617 4.633 0.926395 4.52051 0.542405 4.31799V4.34984C0.542405 5.61735 1.49583 6.67468 2.75919 6.91353C2.35277 7.01837 1.92631 7.03363 1.51267 6.95811C1.68934 7.47702 2.03296 7.93084 2.49559 8.25627C2.95821 8.58169 3.51676 8.76247 4.09331 8.7734C3.51987 9.19949 2.86315 9.51445 2.16076 9.70026C1.45836 9.88606 0.724093 9.93905 0 9.8562C1.22294 10.5982 2.67497 11.0282 4.23817 11.0282C9.32532 11.0282 12.1047 7.04729 12.1047 3.59188C12.1047 3.48042 12.1047 3.36895 12.098 3.2543C12.637 2.88806 13.1087 2.42628 13.4793 1.90399H13.4759Z" fill="#4AC87E"/>
</svg>
