<svg width="19" height="15" viewBox="0 0 19 15" fill="none" xmlns="http://www.w3.org/2000/svg">
<path fill-rule="evenodd" clip-rule="evenodd" d="M18.9952 1.78536C18.2844 2.09101 17.5305 2.29156 16.7586 2.38037C17.5659 1.9099 18.1832 1.1673 18.4681 0.28632C17.7045 0.725933 16.8695 1.03631 15.9987 1.2042C15.4652 0.64789 14.7714 0.260675 14.0079 0.0930611C13.2444 -0.0745527 12.4467 -0.0147847 11.7186 0.264569C10.9906 0.543923 10.3662 1.02989 9.92682 1.65909C9.48742 2.28828 9.25345 3.03149 9.25543 3.79177C9.25449 4.08205 9.28795 4.37146 9.35516 4.6543C7.80618 4.57885 6.29083 4.18796 4.90742 3.50698C3.52401 2.826 2.30345 1.87015 1.32492 0.701439C0.824359 1.53456 0.670445 2.52196 0.894662 3.46166C1.11888 4.40136 1.70428 5.22235 2.53112 5.75667C1.91162 5.73781 1.30582 5.57489 0.764559 5.28159V5.32771C0.764559 7.16347 2.10847 8.6948 3.88928 9.04073C3.3164 9.19257 2.71527 9.21467 2.13222 9.1053C2.38124 9.85683 2.8656 10.5141 3.51771 10.9854C4.16981 11.4567 4.95713 11.7186 5.76981 11.7344C4.96151 12.3515 4.03582 12.8077 3.04574 13.0768C2.05567 13.3459 1.02066 13.4226 0 13.3026C1.72382 14.3773 3.77056 15 5.97401 15C13.1447 15 17.0625 9.23445 17.0625 4.22995C17.0625 4.06852 17.0625 3.90708 17.053 3.74104C17.8128 3.21061 18.4776 2.5418 19 1.78536H18.9952Z" fill="#4AC87E"/>
</svg>
