<svg width="22" height="23" viewBox="0 0 22 23" fill="none" xmlns="http://www.w3.org/2000/svg">
<path d="M6.30842 0.460621C6.19346 0.460621 5.94408 0.464252 5.75145 0.471407C5.28014 0.488903 4.67194 0.527588 4.39484 0.586084C3.97841 0.674007 3.58536 0.80673 3.2582 0.979774C2.87119 1.18452 2.52453 1.44568 2.22534 1.75601C1.92675 2.06566 1.67548 2.42424 1.47853 2.82432C1.31094 3.1648 1.18268 3.57429 1.09813 4.0079C1.04274 4.29195 1.00609 4.9169 0.989437 5.40176C0.982548 5.60139 0.979082 5.85962 0.979082 5.97822L0.980742 16.6842C0.980742 16.8032 0.984268 17.0614 0.99118 17.2608C1.00808 17.7488 1.04544 18.3784 1.10192 18.6654C1.18687 19.0965 1.31504 19.5035 1.48218 19.8422C1.67996 20.2429 1.9322 20.6018 2.23194 20.9115C2.53103 21.2207 2.87734 21.4808 3.26377 21.6847C3.59266 21.8582 3.98817 21.991 4.40696 22.0786C4.68131 22.1359 5.28494 22.1738 5.75328 22.1911C5.94607 22.1982 6.19549 22.2018 6.31002 22.2018L16.6506 22.2001C16.7656 22.2001 17.015 22.1965 17.2076 22.1893C17.6789 22.1718 18.2871 22.1331 18.5642 22.0746C18.9807 21.9867 19.3737 21.854 19.7009 21.6809C20.0879 21.4762 20.4346 21.215 20.7337 20.9047C21.0323 20.595 21.2836 20.2365 21.4806 19.8364C21.6481 19.4959 21.7764 19.0864 21.861 18.6528C21.9163 18.3688 21.953 17.7438 21.9696 17.2589C21.9765 17.0593 21.98 16.801 21.98 16.6825L21.9783 5.97653C21.9783 5.85745 21.9748 5.59931 21.9679 5.39987C21.951 4.91189 21.9136 4.28224 21.8571 3.99531C21.7722 3.56418 21.644 3.15722 21.4769 2.8185C21.2791 2.41782 21.0269 2.05893 20.7271 1.74917C20.4281 1.44005 20.0817 1.17989 19.6953 0.975994C19.3664 0.802441 18.9709 0.669655 18.5521 0.582113C18.2777 0.524786 17.6741 0.486864 17.2058 0.469582C17.013 0.462469 16.7636 0.458881 16.649 0.458881L6.30842 0.460621Z" fill="white"/>
</svg>
